<svg width="812" height="263" viewBox="0 0 812 263" fill="none" xmlns="http://www.w3.org/2000/svg">
<path d="M293.48 259.267H90.3394C83.5351 258.945 77.3005 256.008 72.5931 253.112C67.8857 250.215 3.43244 178.156 3.43244 178.156C-8.51843 154.981 15.7428 149.912 20.8135 154.981C25.8842 160.051 71.1461 210.021 71.1461 210.021C73.6808 212.918 79.4745 216.539 82.7335 216.539H237.352C250.026 216.539 261.251 203.503 261.251 191.916V107.907C261.251 95.5959 247.853 84.0085 238.076 84.0085H83.8198C80.5608 84.0085 79.1124 84.0085 76.5777 82.5601C74.0429 81.1117 26.971 28.9686 26.971 28.9686C22.9861 24.2612 19.7272 21.7265 19.7289 15.2085C19.7307 8.69047 22.6258 0.000188606 31.6784 5.80325e-05C40.731 -7.25407e-05 200.419 5.80325e-05 200.419 5.80325e-05C208.748 5.80325e-05 212.731 1.81058 217.8 6.51795C222.87 11.2253 308.689 92.6989 308.689 92.6989C317.741 101.389 321 106.097 321 118.771V229.575C321 242.61 314.844 259.267 293.48 259.267Z" fill="#4D5F81"/>
<path d="M0.160928 166.568C0.16096 162.584 -0.20115 86.5421 0.160928 78.9384C0.523006 71.3347 12.4725 57.5747 23.3357 70.2479C26.3326 73.7442 28.1169 75.7799 29.1296 76.8949V76.4044C29.1296 76.4044 31.7877 79.8214 29.1296 76.8949V206.7C29.1296 206.7 4.50616 179.604 3.41985 178.156C2.33353 176.707 0.160896 170.552 0.160928 166.568Z" fill="#4D5F81"/>
<path d="M209.806 128.845C226.397 129.332 224.594 171.276 209.806 170.911L90.4187 170.911C81.7622 170.911 75.4577 167.703 68.0562 159.97L6.37957 92.1305C-8.76949 69.8825 15.0351 59.6701 21.5283 66.5997C28.0216 73.5293 70.5815 120.579 70.5815 120.579C74.3088 125.638 81.0414 128.845 85.2333 128.845H209.806Z" fill="#4D5F81"/>
<path d="M408.368 261.556C402.299 261.556 396.708 260.491 391.597 258.361C386.593 256.231 382.227 253.303 378.5 249.576V259H354.542V105.667H382.333V169.236C385.847 166.468 389.787 164.338 394.153 162.847C398.519 161.356 403.257 160.611 408.368 160.611C417.313 160.611 425.405 162.9 432.646 167.479C439.887 171.951 445.637 178.021 449.896 185.688C454.262 193.354 456.444 201.819 456.444 211.083C456.444 220.347 454.262 228.812 449.896 236.479C445.637 244.039 439.887 250.109 432.646 254.687C425.405 259.266 417.313 261.556 408.368 261.556ZM405.174 237.118C409.859 237.118 414.118 235.947 417.951 233.604C421.785 231.262 424.819 228.12 427.056 224.181C429.398 220.241 430.569 215.875 430.569 211.083C430.569 206.292 429.398 201.926 427.056 197.986C424.819 194.046 421.785 190.905 417.951 188.562C414.118 186.22 409.859 185.049 405.174 185.049C400.488 185.049 396.229 186.22 392.396 188.562C388.563 190.905 385.475 194.046 383.132 197.986C380.896 201.926 379.778 206.292 379.778 211.083C379.778 215.875 380.896 220.241 383.132 224.181C385.475 228.12 388.563 231.262 392.396 233.604C396.229 235.947 400.488 237.118 405.174 237.118ZM519.645 262.194C510.168 262.194 501.489 259.905 493.61 255.326C485.73 250.748 479.448 244.572 474.763 236.799C470.184 229.025 467.895 220.454 467.895 211.083C467.895 201.606 470.184 193.035 474.763 185.368C479.448 177.595 485.73 171.419 493.61 166.84C501.489 162.262 510.168 159.972 519.645 159.972C529.228 159.972 537.906 162.262 545.679 166.84C553.559 171.419 559.788 177.595 564.367 185.368C569.052 193.035 571.395 201.606 571.395 211.083C571.395 220.454 569.052 229.025 564.367 236.799C559.788 244.572 553.559 250.748 545.679 255.326C537.906 259.905 529.228 262.194 519.645 262.194ZM519.645 237.278C524.436 237.278 528.749 236.106 532.582 233.764C536.522 231.421 539.61 228.28 541.846 224.34C544.189 220.294 545.36 215.875 545.36 211.083C545.36 206.185 544.189 201.766 541.846 197.826C539.61 193.887 536.522 190.745 532.582 188.403C528.749 186.06 524.436 184.889 519.645 184.889C514.853 184.889 510.487 186.06 506.547 188.403C502.714 190.745 499.626 193.887 497.283 197.826C495.047 201.766 493.929 206.185 493.929 211.083C493.929 215.875 495.047 220.294 497.283 224.34C499.626 228.28 502.714 231.421 506.547 233.764C510.487 236.106 514.853 237.278 519.645 237.278ZM634.645 262.194C625.168 262.194 616.489 259.905 608.61 255.326C600.73 250.748 594.448 244.572 589.763 236.799C585.184 229.025 582.895 220.454 582.895 211.083C582.895 201.606 585.184 193.035 589.763 185.368C594.448 177.595 600.73 171.419 608.61 166.84C616.489 162.262 625.168 159.972 634.645 159.972C644.228 159.972 652.906 162.262 660.679 166.84C668.559 171.419 674.788 177.595 679.367 185.368C684.052 193.035 686.395 201.606 686.395 211.083C686.395 220.454 684.052 229.025 679.367 236.799C674.788 244.572 668.559 250.748 660.679 255.326C652.906 259.905 644.228 262.194 634.645 262.194ZM634.645 237.278C639.436 237.278 643.749 236.106 647.582 233.764C651.522 231.421 654.61 228.28 656.846 224.34C659.189 220.294 660.36 215.875 660.36 211.083C660.36 206.185 659.189 201.766 656.846 197.826C654.61 193.887 651.522 190.745 647.582 188.403C643.749 186.06 639.436 184.889 634.645 184.889C629.853 184.889 625.487 186.06 621.547 188.403C617.714 190.745 614.626 193.887 612.283 197.826C610.047 201.766 608.929 206.185 608.929 211.083C608.929 215.875 610.047 220.294 612.283 224.34C614.626 228.28 617.714 231.421 621.547 233.764C625.487 236.106 629.853 237.278 634.645 237.278ZM766.415 259L728.242 206.292L759.707 163.167H789.575L758.589 203.896L799.158 259H766.415ZM702.686 259V105.667H730.478V259H702.686Z" fill="#4D5F81"/>
</svg>
